# xmcd
#
# Track frame offsets: 
#        150
#        11750
#        23899
#        34657
#        45925
#        57320
#        66597
#        80951
#        91249
#        102826
#        111524
#        122871
#        136102
#        149087
#        160928
#        172354
#        182741
#        193936
#        205301
#        216659
#        225291
#        234062
#        245734
#        257055
#        269969
#
# Disc length: 3731 seconds
#
# Revision: 0
# Processed by: cddbd v1.5.2PL0 Copyright (c) Steve Scherf et al.
# Submitted via: ExactAudioCopy v0.99pb5
#
DISCID=840e9119
DTITLE=Various Artist - Pioneers Of Country Music - CD 2
DYEAR=2011
DGENRE=Country
TTITLE0=Patsy Cline - Walkin' After Midnight
TTITLE1=Hank Williams - Your Cheatin' Heart
TTITLE2=Slim Whitman - Rose Marie
TTITLE3=Carl Smith - Hey Joe
TTITLE4=Kitty Wells - It Wasn't God Who Made Honky Tonk Angels
TTITLE5=Webb Pierce - In The Jailhouse Now
TTITLE6=Red Foley - Midnight
TTITLE7=Lefty Frizzell -  Give Me More Of Your Kisses
TTITLE8=Goldie Hill - I Let The Stars Get In My Eyes
TTITLE9=Johnnie and Jack - (Oh Baby Mine) I Get So Lonely
TTITLE10=Jean Shepherd and Ferlin Husky - A Dear John Letter
TTITLE11=Hank Snow - I Don't Hurt Anymore
TTITLE12=Bobby Helms - My Special Angel
TTITLE13=Johnny Horton - When It's Springtime In Alaska (It's Forty Be
TTITLE13=low)
TTITLE14=Ray Price - Crazy Arms
TTITLE15=The Everly Brothers - Bye Bye Love
TTITLE16=Elvis Presley - I Forgot To Remember To Forget
TTITLE17=Eddy Arnold - The Cattle Call
TTITLE18=Webb Pierce and Red Sovine - Why Baby Why
TTITLE19=Don Gibson - Blue Blue Day
TTITLE20=Faron Young - Alone With You
TTITLE21=Tennesse Ernie Ford - Sixteen Tons
TTITLE22=Marty Robbins - A White Sports Coat (And A Pink Carnation)
TTITLE23=Jim Reeves - Four Walls
TTITLE24=Johnny Cash - Ballad Of A Teenage Queen
EXTD=
EXTT0=
EXTT1=
EXTT2=
EXTT3=
EXTT4=
EXTT5=
EXTT6=
EXTT7=
EXTT8=
EXTT9=
EXTT10=
EXTT11=
EXTT12=
EXTT13=
EXTT14=
EXTT15=
EXTT16=
EXTT17=
EXTT18=
EXTT19=
EXTT20=
EXTT21=
EXTT22=
EXTT23=
EXTT24=
PLAYORDER=
